<svg width="1176" height="1080" viewBox="0 0 1176 1080" fill="none" xmlns="http://www.w3.org/2000/svg">
<g clip-path="url(#clip0_728_364)">
<rect width="1176" height="1080" fill="white"/>
<mask id="mask0_728_364" style="mask-type:luminance" maskUnits="userSpaceOnUse" x="0" y="0" width="1176" height="1080">
<path d="M1176 0H0V1080H1176V0Z" fill="white"/>
</mask>
<g mask="url(#mask0_728_364)">
<path d="M1112.5 979C1570.62 979 1942 616.351 1942 169C1942 -278.351 1570.62 -641 1112.5 -641C654.38 -641 283 -278.351 283 169C283 616.351 654.38 979 1112.5 979Z" fill="url(#paint0_radial_728_364)"/>
<path d="M60 1866C572.52 1866 988 1496.63 988 1041C988 585.365 572.52 216 60 216C-452.52 216 -868 585.365 -868 1041C-868 1496.63 -452.52 1866 60 1866Z" fill="url(#paint1_radial_728_364)"/>
</g>
</g>
<defs>
<radialGradient id="paint0_radial_728_364" cx="0" cy="0" r="1" gradientUnits="userSpaceOnUse" gradientTransform="translate(1112.5 169) rotate(90) scale(810 829.5)">
<stop stop-color="#72E4AB"/>
<stop offset="1" stop-color="#C8E4D6" stop-opacity="0"/>
</radialGradient>
<radialGradient id="paint1_radial_728_364" cx="0" cy="0" r="1" gradientUnits="userSpaceOnUse" gradientTransform="translate(60 1041) rotate(90) scale(825 928)">
<stop stop-color="#FF8080"/>
<stop offset="1" stop-color="#FFCCCC" stop-opacity="0"/>
</radialGradient>
<clipPath id="clip0_728_364">
<rect width="1176" height="1080" fill="white"/>
</clipPath>
</defs>
</svg>
