<svg width="31" height="30" viewBox="0 0 31 30" fill="none" xmlns="http://www.w3.org/2000/svg">
<path d="M23 17.5L28 22.5L23 27.5" stroke="black" stroke-width="2" stroke-linecap="round" stroke-linejoin="round"/>
<path d="M23 2.5L28 7.5L23 12.5" stroke="black" stroke-width="2" stroke-linecap="round" stroke-linejoin="round"/>
<path d="M3 22.5001H5.46625C6.27436 22.5056 7.07178 22.3152 7.79018 21.9451C8.50859 21.575 9.12659 21.0363 9.59125 20.3751L16.4088 9.62512C16.8734 8.96393 17.4914 8.42522 18.2098 8.05513C18.9282 7.68504 19.7256 7.4946 20.5338 7.50012H28" stroke="black" stroke-width="2" stroke-linecap="round" stroke-linejoin="round"/>
<path d="M3 7.50012H5.465C6.39682 7.49364 7.31192 7.74768 8.10705 8.23359C8.90217 8.7195 9.54569 9.41794 9.965 10.2501" stroke="black" stroke-width="2" stroke-linecap="round" stroke-linejoin="round"/>
<path d="M28 22.5H20.4487C19.6295 22.4916 18.8248 22.2821 18.1055 21.8897C17.3862 21.4974 16.7743 20.9343 16.3238 20.25L15.875 19.6875" stroke="black" stroke-width="2" stroke-linecap="round" stroke-linejoin="round"/>
</svg>
