<svg width="25" height="25" viewBox="0 0 25 25" fill="none" xmlns="http://www.w3.org/2000/svg">
<path d="M9.37508 14.5837L4.16675 9.37533L9.37508 4.16699" stroke="black" stroke-width="2" stroke-linecap="round" stroke-linejoin="round"/>
<path d="M4.16675 9.375H15.1042C15.8566 9.375 16.6016 9.52319 17.2967 9.81111C17.9918 10.099 18.6234 10.521 19.1554 11.053C19.6874 11.585 20.1094 12.2166 20.3973 12.9117C20.6852 13.6068 20.8334 14.3518 20.8334 15.1042C20.8334 15.8565 20.6852 16.6015 20.3973 17.2966C20.1094 17.9917 19.6874 18.6233 19.1554 19.1553C18.6234 19.6873 17.9918 20.1093 17.2967 20.3972C16.6016 20.6851 15.8566 20.8333 15.1042 20.8333H11.4584" stroke="black" stroke-width="2" stroke-linecap="round" stroke-linejoin="round"/>
</svg>
